<svg xmlns="http://www.w3.org/2000/svg" width="28" height="28" xmlns:xlink="http://www.w3.org/1999/xlink" id="set2-plus">
  <use xlink:href="#a22" transform="translate(5 5)"/>
  <use xlink:href="#b22" transform="translate(9 9)"/>
  <defs>
    <path id="a22" fill-rule="evenodd" d="M0 8.5C0 13.1945 3.8056 17 8.5 17S17 13.1945 17 8.5C17 3.80554 13.1944 0 8.5 0S0 3.80554 0 8.5zm16 0c0 4.1421-3.3578 7.5-7.5 7.5C4.35785 16 1 12.6421 1 8.5 1 4.35791 4.35785 1 8.5 1 12.6422 1 16 4.35791 16 8.5z"/>
    <path id="b22" fill-rule="evenodd" d="M4.5 0c-.27612 0-.5.223877-.5.5V4H.5c-.276123 0-.5.22388-.5.5 0 .27612.223877.5.5.5H4v3.5c0 .27612.22388.5.5.5.27612 0 .5-.22388.5-.5V5h3.5c.27612 0 .5-.22388.5-.5 0-.27612-.22388-.5-.5-.5H5V.5c0-.276123-.22388-.5-.5-.5z"/>
  </defs>
</svg>
