<svg xmlns="http://www.w3.org/2000/svg" width="28" height="28" xmlns:xlink="http://www.w3.org/1999/xlink" id="set2-error">
  <use xlink:href="#a19" transform="translate(4 4)"/>
  <defs>
    <path id="a19" fill-rule="evenodd" d="M10 20c5.5229 0 10-4.4772 10-10 0-5.52283-4.4771-10-10-10C4.47714 0 0 4.47717 0 10c0 5.5228 4.47714 10 10 10zM9.5726 4c-.56521 0-1.0181.46802-.99945 1.03296l.18402 5.57814c.01776.5392.45999.967.99945.967h.56488c.5395 0 .9817-.4278.9995-.967l.184-5.57814C11.5236 4.46802 11.0707 4 10.5055 4h-.9329zm.4665 11.5469c-1.00785 0-1.59379-.5235-1.59379-1.4219 0-.9062.58594-1.4297 1.59379-1.4297 1.0078 0 1.6015.5235 1.6015 1.4297 0 .8984-.5937 1.4219-1.6015 1.4219z"/>
  </defs>
</svg>
