<svg xmlns="http://www.w3.org/2000/svg" width="28" height="28" xmlns:xlink="http://www.w3.org/1999/xlink" id="set2-check">
  <use xlink:href="#a16" transform="translate(4 4)"/>
  <defs>
    <path id="a16" fill-rule="evenodd" d="M20 10c0 5.5228-4.4771 10-10 10-5.52286 0-10-4.4772-10-10C0 4.47717 4.47714 0 10 0c5.5229 0 10 4.47717 10 10zm-13.70709.8743c.3905-.3905 1.02368-.3905 1.41418 0l1.44016 1.44 2.89995-5.76376c.2483-.49341.8494-.69214 1.3428-.44385.4934.24817.6921.84936.4439 1.34277l-3.522 7.00004c-.3063.6087-1.11848.7395-1.60038.2575l-2.41861-2.4185c-.39054-.3906-.39054-1.0237 0-1.4142z"/>
  </defs>
</svg>
