<svg width="28" height="28" viewBox="0 0 28 28" version="1.1" xmlns="http://www.w3.org/2000/svg" xmlns:xlink="http://www.w3.org/1999/xlink">
<title>@$&#9;</title>
<desc>Created using Figma</desc>
<g id="Canvas" transform="translate(-636 -1834)">
<g id="Icon/Misc/Carbon/Comment">
<g id="Icon/Misc/Carbon/Comment">
<g id="Shape">
<use xlink:href="#path0_fill" transform="translate(640.5 1838.5)" fill="#202A37"/>
</g>
</g>
</g>
</g>
<defs>
<path id="path0_fill" fill-rule="evenodd" d="M 9 0C 3.84729 0 0 3.20044 0 7.40625C 0 10.0635 1.2326 12.2257 3.61249 13.5023L 3.61249 18.0624L 8.56702 14.7594L 9 14.7594C 14.1527 14.7594 18 11.559 18 7.35315C 18 3.22693 14.1208 0 9 0ZM 9 13.7594L 8.26422 13.7594L 4.61249 16.1938L 4.61249 12.8849L 4.33228 12.7478C 2.11896 11.6647 1 9.79138 1 7.40625C 1 3.79761 4.36304 1 9 1C 13.605 1 17 3.8241 17 7.35315C 17 10.9618 13.637 13.7594 9 13.7594Z"/>
</defs>
</svg>
