<svg xmlns="http://www.w3.org/2000/svg" width="28" height="28" xmlns:xlink="http://www.w3.org/1999/xlink" id="set2-comment">
  <use xlink:href="#a17" transform="translate(4.5 4.5)"/>
  <defs>
    <path id="a17" fill-rule="evenodd" d="M9 0C3.84729 0 0 3.20044 0 7.40625c0 2.65725 1.2326 4.81945 3.61249 6.09605v4.5601l4.95453-3.303H9c5.1527 0 9-3.2004 9-7.40625C18 3.22693 14.1208 0 9 0zm0 13.7594h-.73578l-3.65173 2.4344v-3.3089l-.28021-.1371C2.11896 11.6647 1 9.79138 1 7.40625 1 3.79761 4.36304 1 9 1c4.605 0 8 2.8241 8 6.35315 0 3.60865-3.363 6.40625-8 6.40625z"/>
  </defs>
</svg>
