<svg xmlns="http://www.w3.org/2000/svg" width="28" height="28" xmlns:xlink="http://www.w3.org/1999/xlink" id="set2-edit">
  <use xlink:href="#a18" transform="translate(5.534 6.07)"/>
  <use xlink:href="#b18" transform="translate(17.19 5.04)"/>
  <use xlink:href="#c18" transform="translate(6.79 18.47)"/>
  <defs>
    <path id="a18" fill-rule="evenodd" d="M0 15.6151l5.03973-1.8719.17945-.1151L15.6912 3.15613 12.4616 0 2.05493 10.4066l-.11291.1737L0 15.6151zM12.4697 1.40613l1.799 1.75818-9.67941 9.67949-2.85797 1.0615 1.10559-2.8664 9.63279-9.63277z"/>
    <path id="b18" d="M.707107 2.54683l1.200003-1.2c.47077-.470774 1.24946-.458214 1.76572.01503.47215.4328.47215 1.24717-.01569 1.73501l-1.2 1.2.70711.7071 1.2-1.2c.88359-.88359.88359-2.35493-.01569-3.179268C3.44938-.199542 2.06165-.221925 1.2.639725L0 1.83973l.707107.7071z"/>
    <path id="c18" d="M0 .707107L1.25714 1.96425l.70711-.70711L.707107 0 0 .707107z"/>
  </defs>
</svg>
