<svg xmlns="http://www.w3.org/2000/svg" width="28" height="28" xmlns:xlink="http://www.w3.org/1999/xlink" id="set2-flag">
  <use xlink:href="#a20" transform="translate(7 6.26)"/>
  <use xlink:href="#b20" transform="translate(7 4.55)"/>
  <defs>
    <path id="a20" d="M0 0v17.7429h1V0H0z"/>
    <path id="b20" fill-rule="evenodd" d="M.817566 1.28052L0 .608398V11.6598l.182434.15c2.170226 1.7843 3.883366 1.6049 7.511906.0745 3.31136-1.3966 4.70276-1.5425 6.48806-.0745l.8176.6721V1.43054l-.1824-.15002c-2.1703-1.784304-3.8834-1.604861-7.51194-.07447-3.3114 1.39673-4.70275 1.54249-6.488094.07447zM14 10.4463c-1.8236-1.12501-3.5312-.81752-6.69434.5165-3.19781 1.3487-4.60504 1.531-6.30566.2199V2.64392c1.82367 1.12512 3.53119.81763 6.69434-.51648C10.8922.778687 12.2994.596558 14 1.90759v8.53871z"/>
  </defs>
</svg>
