<svg xmlns="http://www.w3.org/2000/svg" width="28" height="28" xmlns:xlink="http://www.w3.org/1999/xlink" id="set2-link">
  <use xlink:href="#a21" transform="translate(5.932 5.55)"/>
  <defs>
    <path id="a21" fill-rule="evenodd" d="M10.9816 1.57361L8.61356 3.94153l-.7071-.70703L10.2744.866455c1.1553-1.155273 2.9439-1.155273 4.0992 0l.768.767945c1.1552 1.15527 1.1552 2.94385 0 4.09912l-3.9041 3.90405c-1.1552 1.15523-2.9438 1.15523-4.09904 0l-.32001-.32007.70709-.70703.32001.31995c.76474.76477 1.92017.76477 2.68495 0l3.9039-3.90393c.7648-.76477.7648-1.92017 0-2.68494l-.768-.76794c-.7647-.764772-1.9201-.764772-2.6848 0zM5.02646 14.4984l2.36798-2.3679.70712.707-2.36801 2.3681c-1.15527 1.1552-2.94385 1.1552-4.09909 0l-.768005-.7681c-1.155273-1.1553-1.155273-2.9438 0-4.099L4.77045 6.43445c1.15527-1.15528 2.94384-1.15528 4.09912 0l.31997.31994-.70709.70716-.32-.31995c-.76474-.76477-1.92017-.76477-2.68491 0l-3.90399 3.9039c-.764743.7648-.764743 1.9202 0 2.685l.768.7679c.76474.7648 1.92017.7648 2.68491 0z"/>
  </defs>
</svg>
