<svg xmlns="http://www.w3.org/2000/svg" width="28" height="28" xmlns:xlink="http://www.w3.org/1999/xlink" id="set2-search">
  <use xlink:href="#a23" transform="translate(6 6)"/>
  <defs>
    <path id="a23" fill-rule="evenodd" d="M15.7353 15.7353c-.3905.3905-1.0237.3905-1.4142 0l-3.1497-3.1498c-2.74152 2.05-6.62963 1.8557-9.12112-.6358-2.733705-2.7336-2.733705-7.1658 0-9.8995 2.7337-2.7336 7.16579-2.7336 9.89952 0 2.4915 2.4915 2.6858 6.3797.6358 9.1211l3.1497 3.1497c.3906.3906.3906 1.0237 0 1.4143zM10.5356 3.46445c-1.95272-1.9526-5.11842-1.9526-7.07112 0-1.9526 1.9527-1.9526 5.1185 0 7.07115 1.9527 1.9525 5.1184 1.9525 7.07112 0 1.9526-1.95265 1.9526-5.11845 0-7.07115z"/>
  </defs>
</svg>
