<svg xmlns="http://www.w3.org/2000/svg" width="20" height="17" xmlns:xlink="http://www.w3.org/1999/xlink">
  <desc>
    Created using Figma
  </desc>
  <g transform="translate(-686 -3269)">
    <path fill="#FFF" d="M686 3269h11v17h-11z"/>
    <clipPath id="a" clip-rule="evenodd">
      <path fill="#FFF" d="M0 0h1600v6000H0V0z"/>
    </clipPath>
    <g clip-path="url(#a)">
      <path fill="#FFF" d="M0 0h1600v6000H0V0z"/>
      <use fill="#FFF" xlink:href="#b" transform="translate(356 3257)" filter="url(#c)"/>
      <mask id="e">
        <use fill="#fff" xlink:href="#b" transform="translate(356 3257)"/>
      </mask>
      <use fill="#29384A" fill-opacity=".2" xlink:href="#d" transform="translate(356 3257)" mask="url(#e)"/>
      <g fill="#071627" fill-opacity=".3">
        <use xlink:href="#f" transform="translate(687.52 3280.02)"/>
        <use xlink:href="#f" transform="matrix(1 0 0 -1 687.52 3274.98)"/>
      </g>
    </g>
  </g>
  <defs>
    <filter id="c" width="356" height="43" x="354" y="3256" filterUnits="userSpaceOnUse" color-interpolation-filters="sRGB">
      <feFlood flood-opacity="0" result="BackgroundImageFix"/>
      <feBlend in="SourceGraphic" in2="BackgroundImageFix" result="shape"/>
      <feColorMatrix in="SourceAlpha" values="0 0 0 0 0 0 0 0 0 0 0 0 0 0 0 0 0 0 255 0" result="hardAlpha"/>
      <feOffset dy="1"/>
      <feGaussianBlur stdDeviation="1"/>
      <feComposite in2="hardAlpha" operator="arithmetic" k2="-1" k3="1"/>
      <feColorMatrix values="0 0 0 0 0 0 0 0 0 0 0 0 0 0 0 0 0 0 0.1 0"/>
      <feBlend in2="shape" result="effect1_innerShadow"/>
    </filter>
    <path id="b" fill-rule="evenodd" d="M0 2C0 .895431.895431 0 2 0h348c1.105 0 2 .895431 2 2v36c0 1.1046-.895 2-2 2H2c-1.104569 0-2-.8954-2-2V2z"/>
    <path id="d" d="M2 1h348v-2H2v2zm349 1v36h2V2h-2zm-1 37H2v2h348v-2zM1 38V2h-2v36h2zM2-1C.343146-1-1 .343146-1 2h2c0-.55228.44772-1 1-1v-2zm348 2c.552 0 1 .44772 1 1h2c0-1.656854-1.343-3-3-3v2zm1 37c0 .5523-.448 1-1 1v2c1.657 0 3-1.3431 3-3h-2zM2 39c-.55228 0-1-.4477-1-1h-2c0 1.6569 1.343146 3 3 3v-2z"/>
    <path id="f" d="M4.02528 4.04819l-.7071.7071.7071.70711.70711-.70711-.70711-.7071zM-.707107.73001L3.31818 4.75529l1.41421-1.41421L.707107-.684203-.707107.73001zM4.73239 4.75529L8.78058.707107 7.36636-.707107 3.31818 3.34108l1.41421 1.41421z"/>
  </defs>
</svg>
