<svg xmlns="http://www.w3.org/2000/svg" width="28" height="28" xmlns:xlink="http://www.w3.org/1999/xlink">
  <use xlink:href="#a" transform="translate(8 8)"/>
  <defs>
    <path id="a" d="M.00000314 6.91168c-.0009439-.27693.21112786-.50807.48711586-.53092L2.3732 6.22149l.98618-2.36789c.11825-.28137.40473-.45411.70877-.42739.30517.02602.5574.24861.62117.54818l.77779 3.67526L7.02934.548647c.06842-.313843.34252-.54024805.66364-.54817083C8.01902-.0115871 8.3088.20672 8.38715.523429L9.90027 6.24538l1.61403.15662c.2778.0269.4888.26195.4857.54105-.0031.27909-.2193.50938-.4977.53007l-2.13561.16326c-.31804.00125-.59705-.21182-.67957-.51897l-.9145-3.45096-1.64186 7.45005c-.07223.3192-.355.5464-.68223.5482-.32813-.0015-.61095-.2313-.67957-.5521l-.98087-4.64556-.29997.71939c-.10807.26077-.36278.43058-.64506.43004L.493755 7.4426c-.278612-.01955-.49443692-.25162-.49375186-.53092z"/>
  </defs>
</svg>
