<svg width="28" height="28" viewBox="0 0 28 28" version="1.1" xmlns="http://www.w3.org/2000/svg" xmlns:xlink="http://www.w3.org/1999/xlink">
<title>@$&#9;</title>
<desc>Created using Figma</desc>
<g id="Canvas" transform="translate(-436 -1774)">
<g id="Icon/Presta/White/Check">
<g id="Icon/Presta/White/Arrow Side">
<g id="Shape">
<use xlink:href="#path0_fill" transform="matrix(6.12323e-17 -1 1 6.12323e-17 445 1791)" fill="#202A37"/>
</g>
</g>
</g>
</g>
<defs>
<path id="path0_fill" d="M 3.5001 0C 3.22359 0 3.00008 0.22401 3.00008 0.500021L 3.00008 7.43282L 0.820489 5.61624C 0.60698 5.43923 0.292967 5.46823 0.115959 5.68024C -0.061048 5.89225 -0.0320468 6.20776 0.179962 6.38427L 3.5001 9.00038C 3.56161 9.00038 6.82024 6.38427 6.82024 6.38427C 7.03225 6.20726 7.06075 5.89225 6.88425 5.68024C 6.70724 5.46823 6.39273 5.43923 6.17972 5.61624L 4.00012 7.43282L 4.00012 0.500021C 4.00012 0.22401 3.77662 0 3.5001 0Z"/>
</defs>
</svg>
