<svg width="28" height="28" viewBox="0 0 28 28" version="1.1" xmlns="http://www.w3.org/2000/svg" xmlns:xlink="http://www.w3.org/1999/xlink">
<title>@$&#9;</title>
<desc>Created using Figma</desc>
<g id="Canvas" transform="translate(-516 -1774)">
<g id="Icon/Presta/White/Plus">
<g id="Icon/Presta/White/Close">
<g id="Shape">
<use xlink:href="#path0_fill" transform="translate(525.71 1783.71)" fill="#202A37"/>
</g>
</g>
</g>
</g>
<defs>
<path id="path0_fill" d="M 0.178898 1.04314L 3.20374 4.06799L 0.178898 7.09283C -0.0596327 7.33136 -0.0596327 7.71854 0.178898 7.95707C 0.417429 8.1956 0.804609 8.1956 1.04314 7.95707L 4.06799 4.93223L 7.09283 7.95707C 7.33136 8.1956 7.71854 8.1956 7.95707 7.95707C 8.1956 7.71854 8.1956 7.33136 7.95707 7.09283L 4.93223 4.06799L 7.95707 1.04314C 8.1956 0.804609 8.1956 0.417429 7.95707 0.178898C 7.71854 -0.0596327 7.33136 -0.0596327 7.09283 0.178898L 4.06799 3.20374L 1.04314 0.178898C 0.804609 -0.0596327 0.417429 -0.0596327 0.178898 0.178898C -0.0596327 0.417429 -0.0596327 0.804609 0.178898 1.04314Z"/>
</defs>
</svg>
