<svg xmlns="http://www.w3.org/2000/svg" width="28" height="28" xmlns:xlink="http://www.w3.org/1999/xlink" id="set1-comment">
  <use xlink:href="#a6" transform="translate(8 8)"/>
  <defs>
    <path id="a6" fill-rule="evenodd" d="M0 4.99976C0 2.2384 2.6864 0 5.99976 0 9.31311 0 11.9995 2.24036 12 5.00183c0 1.63538-1.043 3.08984-2.49988 4.00183 0 0 .99998 3.00444.28095 3.00444-1.33087 0-2.2334-.9852-2.77436-1.5755-.23144-.2527-.39672-.43297-.50097-.43297h-.00598c-.0821 0-.16455.00207-.24744.00417-.08374.0021-.16791.0043-.25256.0043C2.6864 10.0081 0 7.76123 0 4.99976zM8.30219 8.5697l.66699-.41748c1.27142-.79602 2.03042-1.97449 2.03092-3.15137 0-2.20544-2.24296-3.99987-4.99979-3.99987-2.7569 0-4.99982 1.79638-4.99982 4.00183 0 2.20544 2.24292 4.00183 4.99982 4.00183.14349 0 .28845-.00049.43096-.0105l.034.00598h.04047c.54547 0 .86749.344 1.23999.75244.31848.34904.71448.77404 1.20141 1.03004-.08947-.4351-.23297-.97755-.39599-1.46644l-.24896-.74646z"/>
  </defs>
</svg>
