<svg xmlns="http://www.w3.org/2000/svg" width="28" height="28" xmlns:xlink="http://www.w3.org/1999/xlink" id="set1-filter">
  <use xlink:href="#a8" transform="translate(8.5 9)"/>
  <defs>
    <path id="a8" fill-rule="evenodd" d="M4.89948 9.80396l-1.00782-.73169c-.25244-.18287-.40313-.4751-.40362-.7804V5.5365L.222229 1.58472C-.0221558 1.28967-.0685425.894043.100769.553101.270081.212158.618286 0 1.00934 0h7.98132c.39105 0 .73926.212158.90857.553101.16927.340942.12297.736569-.12146 1.032109L6.51196 5.5365v3.48706c0 .37207-.21362.70618-.55731.87256-.14361.0697-.29779.10388-.45148.10388-.21319 0-.42529-.06628-.60369-.19604zM8.95447.959839H.969604L4.46014 5.17847v3.09778l1.00782.73156V5.17847L8.95447.959839z"/>
  </defs>
</svg>
