<svg width="28" height="28" viewBox="0 0 28 28" version="1.1" xmlns="http://www.w3.org/2000/svg" xmlns:xlink="http://www.w3.org/1999/xlink">
<title>@$&#9;</title>
<desc>Created using Figma</desc>
<g id="Canvas" transform="translate(-676 -1774)">
<g id="Icon/Presta/White/Trash">
<g id="Icon/Presta/White/Filter">
<g id="filter">
<use xlink:href="#path0_fill" transform="translate(684.5 1783)" fill="#202A37"/>
</g>
</g>
</g>
</g>
<defs>
<path id="path0_fill" fill-rule="evenodd" d="M 4.89948 9.80396L 3.89166 9.07227C 3.63922 8.8894 3.48853 8.59717 3.48804 8.29187L 3.48804 5.5365L 0.222229 1.58472C -0.0221558 1.28967 -0.0685425 0.894043 0.100769 0.553101C 0.270081 0.212158 0.618286 0 1.00934 0L 8.99066 0C 9.38171 0 9.72992 0.212158 9.89923 0.553101C 10.0685 0.894043 10.0222 1.28967 9.77777 1.58521L 6.51196 5.5365L 6.51196 9.02356C 6.51196 9.39563 6.29834 9.72974 5.95465 9.89612C 5.81104 9.96582 5.65686 10 5.50317 10C 5.28998 10 5.07788 9.93372 4.89948 9.80396ZM 8.95447 0.959839L 0.969604 0.959839L 4.46014 5.17847L 4.46014 8.27625L 5.46796 9.00781L 5.46796 5.17847L 8.95447 0.959839Z"/>
</defs>
</svg>
