<svg xmlns="http://www.w3.org/2000/svg" width="28" height="28" xmlns:xlink="http://www.w3.org/1999/xlink" id="set1-flag">
  <use xlink:href="#a9" transform="translate(9 8)"/>
  <defs>
    <path id="a9" fill-rule="evenodd" d="M6.5 3V1.5S4.15601-.5 1 1.16956V.5C1 .223999.776001 0 .5 0S0 .223999 0 .5V12h1V7.5c1.42352-.96545 2.65997-.60754 3.5-.30652V9.5c.89038.5264 2.14661.5088 3.08484.49573.13763-.00196.26837-.00379.39014-.00379 1.05401 0 2.03152-.3684 2.85752-1.10547l.167-.14892V1.90002l-.8325.73999C10.152 2.65405 8.61951 3.81152 6.5 3zM1 6.5V2.29456C2.31598 1.5575 4 1.0625 5.5 2v4.5c-.95398-.47949-2.65601-.99048-4.5 0zM5.5 9c1.25.64551 2.78101.27051 4.5-.71851V3.92798c-.763.38501-1.99951.531-3.5.07202v3.5s-.9585.0105-1 0V9z"/>
  </defs>
</svg>
