<svg xmlns="http://www.w3.org/2000/svg" width="28" height="28" xmlns:xlink="http://www.w3.org/1999/xlink" id="set1-phone">
  <use xlink:href="#a11" transform="translate(8 8)"/>
  <defs>
    <path id="a11" fill-rule="evenodd" d="M2.73846 0c1.33442 0 2.43177.997803 2.49842 2.27161.03479.66601-.19861 1.29785-.65583 1.78015-.18359.19385-.39837.35461-.63238.47583l3.19141 3.51367c.23339-.2251.5238-.40808.85858-.53772.71942-.27832 1.52942-.2561 2.16664.05884.8412.41577 1.2635 1.37341 1.2336 2.06347C11.3395 11.0016 10.3303 12 8.99945 12c-2.74499 0-4.95898-.8521-6.58142-2.53198C.54425 7.52698-.0575562 4.94934.00427246 3.18481.0828857.942017 1.19104.223145 2.10724.0144043 2.15106.0053711 2.19543 0 2.24048 0h.49798zm.10138 3.59998c.3324 0 .64142-.13318.87061-.37439.22858-.2406.34503-.55738.32757-.89038-.03295-.62525-.61614-1.13465-1.30017-1.13465h-.4284c-.32038.08045-1.04822.35877-1.10639 2.02735-.05102 1.44909.46259 3.7351 2.07721 5.40722 1.38721 1.43637 3.3114 2.16537 5.71796 2.16537.6864 0 1.16887-.4925 1.20067-1.22579.0114-.2627-.1836-.74756-.56645-.93653-.33539-.16565-.79621-.17224-1.2024-.0144-.32818.12659-.57299.34375-.67199.59582-.07563.19312-.24604.3335-.45002.37073-.13275.02332-.26727.0022-.38342-.05737-.06286-.03223-.1203-.07581-.16919-.12976L2.39526 4.60315c-.1596-.17517-.20044-.42896-.10443-.64563.09662-.21777.3114-.35754.54901-.35754z"/>
  </defs>
</svg>
