<svg xmlns="http://www.w3.org/2000/svg" width="28" height="28" xmlns:xlink="http://www.w3.org/1999/xlink" id="set1-setting">
  <use xlink:href="#a13" transform="translate(7 7)"/>
  <use xlink:href="#b13" transform="translate(11.083 11.08)"/>
  <defs>
    <path id="a13" fill-rule="evenodd" d="M12.6595 2.76038l-.6364 1.27282c.1562.26355.2905.53797.4024.82227.0882.22412.1624.45447.2223.69031l1.3516.45031V8.0033l-1.3516.45031c-.1364.53443-.3459 1.04077-.6253 1.5127l.6364 1.27279-1.4198 1.4198-1.27285-.6364c-.47132.2794-.97766.4889-1.51258.6253l-.45031 1.3516H5.99609l-.45031-1.3516c-.53437-.1364-1.04071-.3459-1.51264-.6253l-1.27283.6364-1.41979-1.4198.63641-1.27279c-.27942-.47144-.48883-.97778-.62537-1.5127L0 8.0033V5.99609l1.35217-.45031c.13648-.53431.34589-1.04065.62531-1.51258l-.63642-1.27282 1.41987-1.41993 1.27282.63648c.47193-.27942.97827-.48889 1.51258-.62537L5.99664 0h2.00727l.45031 1.35156c.53437.13648 1.04071.34595 1.51264.62537l1.27284-.63648 1.4198 1.41993zm-1.0156 4.79907l1.1894-.39661v-.32617l-1.1894-.39661-.0647-.33484c-.1208-.6195-.3588-1.1958-.7082-1.71325l-.1908-.28235.56-1.12-.2304-.23034-1.11997.55993-.28235-.19079c-.518-.34937-1.0943-.58789-1.71325-.70813l-.33484-.0647-.39667-1.18945h-.32605L6.44 2.35559l-.33484.0647c-.61889.12024-1.19525.35876-1.71325.70813l-.28235.19079-1.12-.55993-.2304.23034.55999 1.12-.19073.28235c-.34943.51745-.5874 1.09375-.70819 1.71325l-.06476.33484-1.18939.39661v.32617l1.18939.39661.06476.33484c.12079.6195.35876 1.1958.70819 1.71325l.19073.28235-.55999 1.12001.2304.2305 1.12-.5601.28235.1908c.51739.3494 1.09375.5874 1.71325.7081l.33484.0647.39667 1.1895h.32605l.39667-1.1895.33484-.0647c.6195-.1207 1.19586-.3587 1.71325-.7081l.28235-.1908 1.11997.5601.2304-.2305-.56-1.12001.1908-.28235c.3494-.51745.5874-1.09375.7082-1.71325l.0647-.33484z"/>
    <path id="b13" fill-rule="evenodd" d="M0 2.91663C0 1.30847 1.30841 0 2.91669 0 4.5249 0 5.83331 1.30847 5.83331 2.91663c0 1.60827-1.30841 2.91674-2.91662 2.91674C1.30841 5.83337 0 4.5249 0 2.91663zm1.16669 0c0 .96484.78515 1.75 1.75 1.75.96484 0 1.75-.78516 1.75-1.75 0-.96485-.78516-1.75-1.75-1.75-.96485 0-1.75.78515-1.75 1.75z"/>
  </defs>
</svg>
