<svg width="28" height="28" viewBox="0 0 28 28" version="1.1" xmlns="http://www.w3.org/2000/svg" xmlns:xlink="http://www.w3.org/1999/xlink">
<title>h&#181;\</title>
<desc>Created using Figma</desc>
<g id="Canvas" transform="translate(-876 -1774)">
<g id="Icon/Presta/White/Arrow Side">
<g id="Icon/Presta/White/Trash">
<g id="Shape">
<use xlink:href="#path0_fill" transform="translate(885 1782)" fill="#202A37"/>
</g>
</g>
</g>
</g>
<defs>
<path id="path0_fill" fill-rule="evenodd" d="M 5.5 0L 4.5 0C 3.67297 0 3 0.672974 3 1.5L 3 2L 1 2C 0.448486 2 0 2.44849 0 3L 0 3.5C 0 4.05151 0.448486 4.5 1 4.5L 1.0625 4.5L 1.94702 11.1315C 2.01202 11.6265 2.43799 12 2.93799 12L 7.06201 12C 7.56201 12 7.98853 11.6265 8.05298 11.1324L 8.9375 4.5L 9 4.5C 9.55151 4.5 10 4.05151 10 3.5L 10 3C 10 2.44849 9.55151 2 9 2L 7 2L 7 1.5C 7 0.672974 6.32703 0 5.5 0ZM 4 1.5C 4 1.22449 4.224 1 4.5 1L 5.5 1C 5.776 1 6 1.22449 6 1.5L 6 2L 4 2L 4 1.5ZM 2.93805 10L 7.06201 10L 7.12903 9.5L 2.87152 9.5L 2.93805 10ZM 6.97668 11.0625L 2.96826 11.0625L 2.07098 4.5L 7.92896 4.5L 6.97668 11.0625ZM 9.00049 4L 9 3L 7 3L 3 3L 1 3L 1 4L 9.00049 4Z"/>
</defs>
</svg>
