<svg xmlns="http://www.w3.org/2000/svg" width="28" height="28" xmlns:xlink="http://www.w3.org/1999/xlink" id="set1-view">
  <use xlink:href="#a15" transform="translate(8 11)"/>
  <defs>
    <path id="a15" fill-rule="evenodd" d="M5.99976 0C1.96375 0 .140747 3.11951.0652466 3.25244c-.0869751.15357-.0869751.34204 0 .49512C.140747 3.88049 1.96375 7 5.99976 7c4.03604 0 5.85904-3.11951 5.93454-3.25244.0869-.15357.0869-.34204 0-.49512C11.8588 3.11951 10.0358 0 5.99976 0zm0 1c.82702 0 1.5.67297 1.5 1.5s-.67298 1.5-1.5 1.5c-.82703 0-1.5-.67297-1.5-1.5s.67297-1.5 1.5-1.5zM1.09778 3.50208C1.58179 4.18201 3.14227 6 5.99976 6c2.83703 0 4.41604-1.82751 4.90154-2.50146-.3375-.47498-1.20001-1.5-2.65704-2.0785.159.3285.2555.69153.2555 1.07996 0 1.37854-1.12146 2.5-2.5 2.5-1.37848 0-2.5-1.12146-2.5-2.5 0-.3855.09503-.74646.25152-1.073-1.44897.58203-2.31598 1.60657-2.6535 2.07508z"/>
  </defs>
</svg>
