<svg xmlns="http://www.w3.org/2000/svg" width="28" height="28" xmlns:xlink="http://www.w3.org/1999/xlink" id="set1-close">
  <use xlink:href="#a5" transform="translate(9.71 9.71)"/>
  <defs>
    <path id="a5" d="M.178898 1.04314L3.20374 4.06799.178898 7.09283c-.2385307.23853-.2385307.62571 0 .86424.238531.23853.625711.23853.864242 0l3.02485-3.02484 3.02484 3.02484c.23853.23853.62571.23853.86424 0 .23853-.23853.23853-.62571 0-.86424L4.93223 4.06799l3.02484-3.02485c.23853-.238531.23853-.625711 0-.864242-.23853-.2385307-.62571-.2385307-.86424 0L4.06799 3.20374 1.04314.178898c-.238531-.2385307-.625711-.2385307-.864242 0-.2385307.238531-.2385307.625711 0 .864242z"/>
  </defs>
</svg>
