<svg xmlns="http://www.w3.org/2000/svg" width="28" height="28" xmlns:xlink="http://www.w3.org/1999/xlink" id="set1-trash">
  <use xlink:href="#a14" transform="translate(9 8)"/>
  <defs>
    <path id="a14" fill-rule="evenodd" d="M5.5 0h-1C3.67297 0 3 .672974 3 1.5V2H1c-.551514 0-1 .44849-1 1v.5c0 .55151.448486 1 1 1h.0625l.88452 6.6315c.065.495.49097.8685.99097.8685h4.12402c.5 0 .92652-.3735.99097-.8676L8.9375 4.5H9c.55151 0 1-.44849 1-1V3c0-.55151-.44849-1-1-1H7v-.5C7 .672974 6.32703 0 5.5 0zM4 1.5c0-.27551.224-.5.5-.5h1c.276 0 .5.22449.5.5V2H4v-.5zM2.93805 10h4.12396l.06702-.5H2.87152l.06653.5zm4.03863 1.0625H2.96826L2.07098 4.5h5.85798l-.95228 6.5625zM9.00049 4L9 3H1v1h8.00049z"/>
  </defs>
</svg>
