<svg xmlns="http://www.w3.org/2000/svg" width="28" height="28" xmlns:xlink="http://www.w3.org/1999/xlink" id="set1-edit">
  <g>
    <use xlink:href="#a7" transform="translate(8.023 8.03)"/>
    <use xlink:href="#b7" transform="translate(15.023 10.03)"/>
  </g>
  <defs>
    <path id="a7" fill-rule="evenodd" d="M.878105 11.9718c-.269 0-.5425-.1524-.7135-.3965-.16700008-.2399-.2090001-.5225-.1165001-.7745C.169605 10.4678 1.6366 7.50685 1.9296 6.91685l.0365-.074 6.42-6.4425c.5515-.5525 1.55201-.53 2.1305.048l1.0055.995c.594.5945.5965 1.454.0085 2.0445l-6.4385 6.472-.07399.037s-3.457 1.72045-3.81951 1.90045c-.1015.05-.208995.0745-.320495.0745zM2.67408 7.56734c-.357.72151-.822 1.6655-1.196 2.4325-.1925.39596.1385.68496.5225.49396.9635-.48 2.108-1.04996 2.409-1.19896l6.45252-6.49c.1975-.199.1955-.4285-.006-.63l-1.02502-1.0165c-.2055-.205995-.5465-.228495-.7225-.052l-6.4345 6.461z"/>
    <path id="b7" fill-rule="evenodd" d="M2.51012 3.00062c-.1255 0-.2505-.04799-.346-.14349L.143625.836625c-.1915-.1915-.1915-.5015 0-.693s.501-.1915.6925 0L2.85663 2.16412c.1915.192.1915.50151 0 .69301-.096.0955-.22101.14349-.34651.14349z"/>
  </defs>
</svg>
