<svg xmlns="http://www.w3.org/2000/svg" width="28" height="28" xmlns:xlink="http://www.w3.org/1999/xlink" id="set1-mail">
  <use xlink:href="#a10" transform="translate(8 10)"/>
  <defs>
    <path id="a10" fill-rule="evenodd" d="M11 0H1C.448486 0 0 .448486 0 1v6c0 .55151.448486 1 1 1h10c.5515 0 1-.44849 1-1V1c0-.551514-.4485-1-1-1zm-.972 1L6 3.41699 1.97198 1H10.028zM1 1.58301V7h10.0005L11 1.58301 6.25751 4.42847c-.05084.03076-.10535.05139-.1615.06237C6.06439 4.49695 6.03223 4.5 6 4.5c-.08948 0-.17798-.02405-.25751-.07153L1 1.58301z"/>
  </defs>
</svg>
